<mxfile host="app.diagrams.net" agent="Mozilla/5.0 (Windows NT 10.0; Win64; x64) AppleWebKit/537.36 (KHTML, like Gecko) Chrome/133.0.0.0 Safari/537.36" version="26.0.14">
  <diagram name="PÃ¡gina-1" id="F-59LpEhGO85rMhETLUA">
    <mxGraphModel dx="867" dy="737" grid="1" gridSize="10" guides="1" tooltips="1" connect="1" arrows="1" fold="1" page="1" pageScale="1" pageWidth="827" pageHeight="1169" math="0" shadow="0">
      <root>
        <mxCell id="0" />
        <mxCell id="1" parent="0" />
        <mxCell id="BgHW2qUL_H9sj69DfNEI-9" style="edgeStyle=orthogonalEdgeStyle;rounded=0;orthogonalLoop=1;jettySize=auto;html=1;exitX=1;exitY=0.25;exitDx=0;exitDy=0;entryX=0;entryY=0.5;entryDx=0;entryDy=0;endArrow=none;startFill=0;" parent="1" source="BgHW2qUL_H9sj69DfNEI-1" target="BgHW2qUL_H9sj69DfNEI-8" edge="1">
          <mxGeometry relative="1" as="geometry" />
        </mxCell>
        <mxCell id="BgHW2qUL_H9sj69DfNEI-22" style="edgeStyle=orthogonalEdgeStyle;rounded=0;orthogonalLoop=1;jettySize=auto;html=1;exitX=1;exitY=0.5;exitDx=0;exitDy=0;entryX=0;entryY=0.5;entryDx=0;entryDy=0;endArrow=none;startFill=0;" parent="1" source="BgHW2qUL_H9sj69DfNEI-1" target="BgHW2qUL_H9sj69DfNEI-20" edge="1">
          <mxGeometry relative="1" as="geometry" />
        </mxCell>
        <mxCell id="BgHW2qUL_H9sj69DfNEI-23" style="edgeStyle=orthogonalEdgeStyle;rounded=0;orthogonalLoop=1;jettySize=auto;html=1;exitX=1;exitY=0.75;exitDx=0;exitDy=0;entryX=0;entryY=0.5;entryDx=0;entryDy=0;endArrow=none;startFill=0;" parent="1" source="BgHW2qUL_H9sj69DfNEI-1" target="BgHW2qUL_H9sj69DfNEI-21" edge="1">
          <mxGeometry relative="1" as="geometry" />
        </mxCell>
        <mxCell id="BgHW2qUL_H9sj69DfNEI-1" value="&lt;font style=&quot;font-size: 16px;&quot;&gt;carta&lt;/font&gt;" style="rounded=1;whiteSpace=wrap;html=1;fillColor=#dae8fc;strokeColor=#6c8ebf;" parent="1" vertex="1">
          <mxGeometry x="8" y="290" width="120" height="60" as="geometry" />
        </mxCell>
        <mxCell id="BgHW2qUL_H9sj69DfNEI-16" style="edgeStyle=orthogonalEdgeStyle;rounded=0;orthogonalLoop=1;jettySize=auto;html=1;exitX=1;exitY=0;exitDx=0;exitDy=0;entryX=0;entryY=0.5;entryDx=0;entryDy=0;endArrow=none;startFill=0;" parent="1" source="BgHW2qUL_H9sj69DfNEI-2" target="BgHW2qUL_H9sj69DfNEI-4" edge="1">
          <mxGeometry relative="1" as="geometry" />
        </mxCell>
        <mxCell id="BgHW2qUL_H9sj69DfNEI-17" style="edgeStyle=orthogonalEdgeStyle;rounded=0;orthogonalLoop=1;jettySize=auto;html=1;exitX=1;exitY=0.25;exitDx=0;exitDy=0;entryX=0;entryY=0.5;entryDx=0;entryDy=0;endArrow=none;startFill=0;" parent="1" source="BgHW2qUL_H9sj69DfNEI-2" target="BgHW2qUL_H9sj69DfNEI-7" edge="1">
          <mxGeometry relative="1" as="geometry" />
        </mxCell>
        <mxCell id="BgHW2qUL_H9sj69DfNEI-18" style="edgeStyle=orthogonalEdgeStyle;rounded=0;orthogonalLoop=1;jettySize=auto;html=1;exitX=1;exitY=0.75;exitDx=0;exitDy=0;entryX=0;entryY=0.5;entryDx=0;entryDy=0;endArrow=none;startFill=0;" parent="1" source="BgHW2qUL_H9sj69DfNEI-2" target="BgHW2qUL_H9sj69DfNEI-6" edge="1">
          <mxGeometry relative="1" as="geometry" />
        </mxCell>
        <mxCell id="BgHW2qUL_H9sj69DfNEI-19" style="edgeStyle=orthogonalEdgeStyle;rounded=0;orthogonalLoop=1;jettySize=auto;html=1;exitX=1;exitY=1;exitDx=0;exitDy=0;entryX=0;entryY=0.5;entryDx=0;entryDy=0;endArrow=none;startFill=0;" parent="1" source="BgHW2qUL_H9sj69DfNEI-2" target="BgHW2qUL_H9sj69DfNEI-5" edge="1">
          <mxGeometry relative="1" as="geometry" />
        </mxCell>
        <mxCell id="BgHW2qUL_H9sj69DfNEI-2" value="&lt;font style=&quot;font-size: 16px;&quot;&gt;desayuno&lt;/font&gt;" style="rounded=1;whiteSpace=wrap;html=1;fillColor=#f8cecc;strokeColor=#b85450;" parent="1" vertex="1">
          <mxGeometry x="414" y="150" width="120" height="60" as="geometry" />
        </mxCell>
        <mxCell id="BgHW2qUL_H9sj69DfNEI-4" value="&lt;font style=&quot;font-size: 16px;&quot;&gt;nombre&lt;/font&gt;" style="rounded=1;whiteSpace=wrap;html=1;fillColor=#fff2cc;strokeColor=#d6b656;" parent="1" vertex="1">
          <mxGeometry x="614" y="30" width="120" height="60" as="geometry" />
        </mxCell>
        <mxCell id="BgHW2qUL_H9sj69DfNEI-5" value="&lt;font style=&quot;font-size: 16px;&quot;&gt;calorias&lt;/font&gt;" style="rounded=1;whiteSpace=wrap;html=1;fillColor=#fff2cc;strokeColor=#d6b656;" parent="1" vertex="1">
          <mxGeometry x="614" y="270" width="120" height="60" as="geometry" />
        </mxCell>
        <mxCell id="BgHW2qUL_H9sj69DfNEI-6" value="&lt;font style=&quot;font-size: 16px;&quot;&gt;descripcion&lt;/font&gt;" style="rounded=1;whiteSpace=wrap;html=1;fillColor=#fff2cc;strokeColor=#d6b656;" parent="1" vertex="1">
          <mxGeometry x="614" y="190" width="120" height="60" as="geometry" />
        </mxCell>
        <mxCell id="BgHW2qUL_H9sj69DfNEI-7" value="&lt;font style=&quot;font-size: 16px;&quot;&gt;precio&lt;/font&gt;" style="rounded=1;whiteSpace=wrap;html=1;fillColor=#fff2cc;strokeColor=#d6b656;" parent="1" vertex="1">
          <mxGeometry x="614" y="110" width="120" height="60" as="geometry" />
        </mxCell>
        <mxCell id="BgHW2qUL_H9sj69DfNEI-14" style="edgeStyle=orthogonalEdgeStyle;rounded=0;orthogonalLoop=1;jettySize=auto;html=1;exitX=1;exitY=0.5;exitDx=0;exitDy=0;entryX=0;entryY=0.5;entryDx=0;entryDy=0;endArrow=none;startFill=0;" parent="1" source="BgHW2qUL_H9sj69DfNEI-8" target="BgHW2qUL_H9sj69DfNEI-2" edge="1">
          <mxGeometry relative="1" as="geometry" />
        </mxCell>
        <mxCell id="BgHW2qUL_H9sj69DfNEI-8" value="&lt;font style=&quot;font-size: 16px;&quot;&gt;desayunos&lt;/font&gt;" style="rounded=1;whiteSpace=wrap;html=1;fillColor=#d5e8d4;strokeColor=#82b366;" parent="1" vertex="1">
          <mxGeometry x="218" y="150" width="120" height="60" as="geometry" />
        </mxCell>
        <mxCell id="BgHW2qUL_H9sj69DfNEI-20" value="&lt;font style=&quot;font-size: 16px;&quot;&gt;comidas&lt;/font&gt;" style="rounded=1;whiteSpace=wrap;html=1;fillColor=#d5e8d4;strokeColor=#82b366;" parent="1" vertex="1">
          <mxGeometry x="205" y="290" width="120" height="60" as="geometry" />
        </mxCell>
        <mxCell id="BgHW2qUL_H9sj69DfNEI-21" value="&lt;font style=&quot;font-size: 16px;&quot;&gt;cenas&lt;/font&gt;" style="rounded=1;whiteSpace=wrap;html=1;fillColor=#d5e8d4;strokeColor=#82b366;" parent="1" vertex="1">
          <mxGeometry x="205" y="440" width="120" height="60" as="geometry" />
        </mxCell>
      </root>
    </mxGraphModel>
  </diagram>
</mxfile>
